{"title":"Slave Kas - Gang Rape Babes Gangbang (XXX)(iPod,PSP,Zune)","uid":6358694,"size":397148803,"categoryP":"porn","categoryS":"movies","magnet":"?xt=urn:btih:27882ed8c3136858f48346d651c1ac8359e4b842&amp;dn=Slave+Kas+-+Gang+Rape+Babes+Gangbang+%28XXX%29%28iPod%2CPSP%2CZune%29&amp;tr=udp%3A%2F%2Ftracker.openbittorrent.com%3A80&amp;tr=udp%3A%2F%2Fopen.demonii.com%3A1337&amp;tr=udp%3A%2F%2Ftracker.coppersurfer.tk%3A6969&amp;tr=udp%3A%2F%2Fexodus.desync.com%3A6969","seeders":2,"leechers":1,"uploader":"JefftheGreat","files":3,"time":1304247045,"description":"SCREENSHOTS:\n\n\n\nVideo\nID                               : 1\nFormat                           : AVC\nFormat/Info                      : Advanced Video Codec\nFormat profile                   : &lt;a class=&quot;__cf_email__&quot; href=&quot;/cdn-cgi/l/email-protection&quot; data-cfemail=&quot;b9fbd8cadcd5d0d7dcf9f588978a&quot;&gt;[email&amp;#160;protected]&lt;/a&gt;&lt;script cf-hash='f9e31' type=&quot;text/javascript&quot;&gt;\n/* &lt;![CDATA[ */!function(){try{var t=&quot;currentScript&quot;in document?document.currentScript:function(){for(var t=document.getElementsByTagName(&quot;script&quot;),e=t.length;e--;)if(t[e].getAttribute(&quot;cf-hash&quot;))return t[e]}();if(t&amp;&amp;t.previousSibling){var e,r,n,i,c=t.previousSibling,a=c.getAttribute(&quot;data-cfemail&quot;);if(a){for(e=&quot;&quot;,r=parseInt(a.substr(0,2),16),n=2;a.length-n;n+=2)i=parseInt(a.substr(n,2),16)^r,e+=String.fromCharCode(i);e=document.createTextNode(e),c.parentNode.replaceChild(e,c)}}}catch(u){}}();/* ]]&gt; */&lt;/script&gt;\nFormat settings, CABAC           : No\nFormat settings, ReFrames        : 2 frames\nCodec ID                         : avc1\nCodec ID/Info                    : Advanced Video Coding\nDuration                         : 2h 3mn\nBit rate mode                    : Variable\nBit rate                         : 360 Kbps\nWidth                            : 368 pixels\nHeight                           : 272 pixels\nDisplay aspect ratio             : 4:3\nFrame rate mode                  : Variable\nFrame rate                       : 23.976 fps\nMinimum frame rate               : 23.974 fps\nMaximum frame rate               : 23.981 fps\nColor space                      : YUV\nChroma subsampling               : 4:2:0\nBit depth                        : 8 bits\nScan type                        : Progressive\nBits/(Pixel*Frame)               : 0.150\nStream size                      : 318 MiB (84%)\nWriting library                  : x264 core 112\n\nAudio\nID                               : 2\nFormat                           : AAC\nFormat/Info                      : Advanced Audio Codec\nFormat profile                   : LC\nCodec ID                         : 40\nDuration                         : 2h 3mn\nBit rate mode                    : Variable\nBit rate                         : 64.1 Kbps\nMaximum bit rate                 : 117 Kbps\nChannel(s)                       : 2 channels\nChannel positions                : Front: L R\nSampling rate                    : 48.0 KHz\nCompression mode                 : Lossy\nStream size                      : 56.7 MiB (15%)\nLanguage                         : English\n\nencoded for iPod,PSP,Zune and other handheld devices...:)","torrent":{"xt":"urn:btih:27882ed8c3136858f48346d651c1ac8359e4b842","amp;dn":"Slave+Kas+-+Gang+Rape+Babes+Gangbang+%28XXX%29%28iPod%2CPSP%2CZune%29","amp;tr":["udp%3A%2F%2Ftracker.openbittorrent.com%3A80","udp%3A%2F%2Fopen.demonii.com%3A1337","udp%3A%2F%2Ftracker.coppersurfer.tk%3A6969","udp%3A%2F%2Fexodus.desync.com%3A6969"],"infoHash":"27882ed8c3136858f48346d651c1ac8359e4b842","infoHashBuffer":{"type":"Buffer","data":[39,136,46,216,195,19,104,88,244,131,70,214,81,193,172,131,89,228,184,66]},"announce":[],"urlList":[]}}